# xmcd
#
# Track frame offsets:
#	150
#	25423
#	42998
#	90192
#	107933
#	129937
#	148715
#	192415
#	218604
#	241132
#
# Disc length: 4123 seconds
#
# Revision: 1
# Processed by: cddbd v1.5.1PL0 Copyright (c) Steve Scherf et al.
# Submitted via: audiograbber 1.83.01
#
DISCID=8310190a
DTITLE=Stevie Ray Vaughan  - Blues At Sunrise
DYEAR=2000
DGENRE=Blues
TTITLE0=01 - Ain't Gone 'N' Give Up On Love
TTITLE1=02 - Leave My Girl Alone
TTITLE2=03 - Tin Pan Alley [A.K.A. Roughest Place In Town] 
TTITLE3=04 - Chitlins Con Carne
TTITLE4=05 - The Things [That] I Used To Do
TTITLE5=06 - The Sky Is Crying
TTITLE6=07 - Texas Flood [Video Version]
TTITLE7=08 - May I Have A Talk With You
TTITLE8=09 - Dirty Pool
TTITLE9=10 - Blues At Sunrise (Live Featuring Albert King)
EXTD=
EXTT0=
EXTT1=
EXTT2=
EXTT3=
EXTT4=
EXTT5=
EXTT6=
EXTT7=
EXTT8=
EXTT9=
PLAYORDER=
